<svg xmlns="http://www.w3.org/2000/svg" xmlns:xlink="http://www.w3.org/1999/xlink" version="1.1" x="0px" y="0px" viewBox="0 0 96 120" enable-background="new 0 0 96 96" xml:space="preserve"><path d="M72.834,42.186c-1.436,0-2.861,0.229-4.234,0.68l-1.677,0.547l-0.274-1.738C65.268,32.871,57.8,26.48,48.893,26.48  c-9.083,0-16.759,6.797-17.852,15.813l-0.249,2.05l-1.873-0.871c-1.831-0.851-3.766-1.284-5.753-1.284  C15.63,42.188,9.5,48.319,9.5,55.854c0,7.535,6.13,13.666,13.666,13.666H44V57.61h-5.72L48,41.586l9.719,16.024H52V69.52h20.835  c7.535,0,13.665-6.133,13.665-13.668C86.5,48.317,80.369,42.186,72.834,42.186z"/><text x="0" y="111" fill="#000000" font-size="5px" font-weight="bold" font-family="'Helvetica Neue', Helvetica, Arial-Unicode, Arial, Sans-serif">Created by projecthayat</text><text x="0" y="116" fill="#000000" font-size="5px" font-weight="bold" font-family="'Helvetica Neue', Helvetica, Arial-Unicode, Arial, Sans-serif">from the Noun Project</text></svg>